<?xml version="1.0" encoding="UTF-8" standalone="no"?>
<svg xmlns:dc="http://purl.org/dc/elements/1.1/" xmlns:cc="http://creativecommons.org/ns#" xmlns:rdf="http://www.w3.org/1999/02/22-rdf-syntax-ns#" xmlns:svg="http://www.w3.org/2000/svg" xmlns="http://www.w3.org/2000/svg" xmlns:inkscape="http://www.inkscape.org/namespaces/inkscape" width="400" height="180" viewBox="0 0 400 180" version="1.1">
   <style>
      path {
         fill: black;
      }

      @media (prefers-color-scheme: dark) {
         path {
            fill: white;
         }
      }
   </style>
   <path d="M 0,0 V 1.9277291 L 109.99998,16.072255 v 2.142577 L 0,19.78515 v 1.929675 l 109.99998,12.570331 v 2.142576 L 0,39.572261 v 1.927748 L 109.99998,52.499984 V 54.64256 L 0,59.357407 v 1.927748 l 109.99998,9.429695 v 2.142576 L 0,79.142591 v 1.929676 l 109.99998,7.855445 v 2.144542 L 0,98.927737 v 1.929673 l 109.99998,6.28517 v 2.14257 L 0,118.71485 v 1.92771 l 109.99998,4.71485 v 2.14257 L 0,138.49999 v 1.92775 l 109.99998,3.14453 v 2.14258 L 0,158.28514 v 1.92968 l 109.99998,1.57035 v 2.14254 L 0,178.07225 V 180 h 109.99998 180 H 400 v -1.92775 L 289.99998,163.92771 v -2.14254 L 400,160.21482 v -1.92968 L 289.99998,145.71485 v -2.14258 L 400,140.42774 v -1.92775 L 289.99998,127.49998 v -2.14257 L 400,120.64256 v -1.92771 l -110.00002,-9.4297 v -2.14257 L 400,100.85741 V 98.927737 L 289.99998,91.072254 V 88.927712 L 400,81.072267 V 79.142591 L 289.99998,72.857426 V 70.71485 L 400,61.285155 V 59.357407 L 289.99998,54.64256 V 52.499984 L 400,41.500009 V 39.572261 L 289.99998,36.427732 V 34.285156 L 400,21.714825 V 19.78515 L 289.99998,18.214832 V 16.072255 L 400,1.9277291 V 0 h -110.00002 -180 z m 139.99998,30.000003 h 120 V 150 h -120 z" />
</svg>
