<?xml version="1.0" standalone="no"?>
<!DOCTYPE svg PUBLIC "-//W3C//DTD SVG 20010904//EN"
 "http://www.w3.org/TR/2001/REC-SVG-20010904/DTD/svg10.dtd">
<svg version="1.0" xmlns="http://www.w3.org/2000/svg"
 width="700.000000pt" height="700.000000pt" viewBox="0 0 700.000000 700.000000"
 preserveAspectRatio="xMidYMid meet">
<metadata>
Created by potrace 1.11, written by Peter Selinger 2001-2013
</metadata>
<g transform="translate(0.000000,700.000000) scale(0.100000,-0.100000)"
fill="#000000" stroke="none">
<path d="M0 5058 c0 -10 4 -18 9 -18 10 0 222 -27 278 -35 18 -3 57 -7 85 -10
29 -3 62 -8 73 -10 12 -2 61 -9 110 -15 50 -5 101 -12 115 -14 14 -3 68 -10
120 -16 52 -6 106 -13 120 -15 14 -2 43 -6 65 -9 42 -6 91 -12 163 -21 23 -3
59 -7 80 -10 20 -2 60 -7 87 -10 28 -3 61 -8 75 -10 14 -2 61 -9 105 -14 115
-15 166 -21 200 -26 17 -3 71 -9 120 -15 50 -6 97 -13 106 -15 18 -6 22 -34 5
-36 -20 -2 -292 -7 -796 -14 -272 -3 -592 -8 -710 -10 -118 -2 -259 -4 -312
-4 -91 -1 -98 -2 -98 -21 0 -17 7 -20 43 -21 23 0 51 -2 62 -4 18 -4 125 -16
250 -30 22 -2 60 -6 85 -10 96 -12 127 -15 170 -19 25 -3 66 -7 93 -10 26 -3
68 -9 95 -12 26 -3 67 -7 92 -10 25 -2 61 -6 80 -9 19 -3 60 -7 90 -10 30 -4
66 -8 80 -10 14 -2 88 -11 165 -19 164 -18 217 -24 265 -31 19 -2 64 -7 100
-10 36 -4 76 -8 90 -10 14 -2 50 -7 80 -10 30 -3 62 -8 71 -10 18 -6 22 -35 5
-36 -30 -2 -188 -7 -436 -13 -151 -4 -336 -9 -410 -12 -141 -4 -285 -9 -680
-20 -215 -6 -345 -10 -377 -13 -7 -1 -13 -8 -13 -16 0 -8 6 -16 13 -16 6 -1
21 -3 32 -4 11 -1 54 -6 95 -10 41 -4 86 -9 100 -10 14 -2 59 -6 100 -10 41
-4 89 -8 105 -11 17 -2 62 -6 100 -10 39 -3 81 -7 95 -9 14 -1 61 -6 105 -10
44 -4 87 -8 95 -10 8 -2 53 -6 100 -10 47 -3 96 -8 110 -10 14 -2 54 -6 90
-10 36 -3 81 -8 100 -10 19 -2 62 -7 95 -10 33 -3 78 -7 100 -10 22 -2 69 -6
105 -10 36 -3 85 -8 110 -11 55 -6 104 -11 195 -19 39 -4 72 -9 74 -11 10 -10
8 -34 -2 -35 -14 -1 -105 -4 -332 -13 -88 -3 -198 -8 -245 -11 -47 -3 -148 -7
-225 -10 -77 -4 -183 -8 -235 -10 -52 -2 -156 -7 -230 -10 -74 -3 -180 -8
-235 -10 -234 -11 -381 -17 -397 -17 -11 1 -18 -7 -18 -19 0 -15 7 -19 33 -20
43 -2 91 -6 157 -12 30 -3 89 -9 130 -12 41 -4 95 -8 120 -10 25 -2 77 -7 115
-10 39 -3 93 -8 120 -10 28 -3 79 -7 115 -10 70 -5 140 -11 233 -20 31 -3 85
-7 120 -10 34 -3 89 -8 122 -10 33 -3 87 -8 120 -11 33 -2 80 -7 105 -9 25 -2
79 -7 120 -10 41 -3 93 -7 115 -10 22 -2 74 -7 115 -10 80 -7 83 -8 86 -30 1
-10 -7 -15 -24 -16 -15 0 -43 -2 -62 -3 -19 -2 -98 -6 -175 -10 -77 -4 -160
-9 -185 -11 -25 -2 -99 -6 -165 -10 -66 -3 -145 -8 -175 -10 -30 -1 -113 -6
-185 -9 -71 -4 -155 -8 -185 -11 -30 -2 -107 -7 -170 -10 -63 -4 -140 -8 -170
-10 -30 -2 -109 -6 -175 -10 -171 -9 -248 -15 -253 -20 -3 -2 -2 -10 1 -18 4
-10 26 -15 80 -16 41 -1 83 -3 94 -5 11 -2 69 -7 129 -11 60 -3 125 -8 144
-10 19 -2 82 -7 140 -10 58 -4 121 -8 140 -10 19 -2 80 -6 135 -9 55 -4 120
-9 145 -11 25 -3 88 -7 140 -11 102 -6 151 -10 270 -19 41 -3 102 -8 135 -10
187 -13 235 -17 285 -20 30 -2 62 -4 72 -4 14 -1 19 -23 7 -35 -2 -2 -42 -7
-89 -11 -47 -3 -107 -8 -135 -10 -27 -2 -95 -7 -150 -10 -55 -4 -116 -8 -135
-10 -19 -2 -80 -6 -135 -10 -55 -3 -120 -8 -145 -10 -25 -2 -90 -7 -145 -10
-55 -4 -116 -8 -135 -10 -19 -2 -84 -6 -145 -10 -60 -3 -126 -8 -145 -10 -19
-2 -82 -7 -140 -10 -58 -4 -121 -8 -140 -10 -19 -2 -81 -7 -137 -10 -136 -9
-137 -9 -141 -28 -2 -12 4 -17 20 -18 13 -1 39 -2 58 -4 19 -1 96 -5 170 -9
74 -4 162 -9 195 -11 33 -2 112 -7 175 -11 63 -3 138 -7 165 -9 28 -1 106 -6
175 -10 69 -3 150 -8 180 -10 30 -2 107 -6 170 -10 63 -3 147 -8 185 -10 143
-9 282 -17 345 -20 36 -2 70 -4 77 -4 10 -1 12 -25 2 -35 -4 -4 -100 -14 -204
-21 -27 -2 -78 -6 -113 -9 -80 -8 -160 -14 -247 -21 -38 -3 -86 -8 -105 -10
-19 -2 -73 -7 -120 -11 -47 -3 -101 -7 -120 -9 -19 -2 -73 -6 -120 -10 -47 -3
-101 -8 -120 -10 -19 -2 -71 -7 -115 -10 -44 -3 -96 -8 -115 -10 -19 -2 -75
-7 -125 -10 -49 -4 -101 -8 -115 -10 -14 -2 -61 -6 -105 -10 -111 -8 -179 -16
-187 -22 -5 -2 -8 -11 -8 -19 0 -11 18 -14 88 -15 48 -1 107 -2 132 -4 25 -1
115 -5 200 -9 85 -3 200 -8 255 -11 55 -2 159 -7 230 -10 72 -3 173 -7 225 -9
52 -3 163 -8 245 -11 351 -14 537 -24 544 -30 3 -3 6 -12 7 -20 2 -11 -8 -15
-34 -16 -21 0 -44 -2 -52 -3 -8 -2 -53 -7 -100 -10 -47 -4 -98 -9 -115 -11
-32 -4 -121 -13 -195 -20 -104 -10 -167 -17 -190 -20 -14 -2 -58 -6 -98 -10
-41 -3 -92 -7 -115 -10 -23 -2 -69 -7 -102 -10 -33 -3 -76 -8 -95 -10 -19 -2
-60 -6 -90 -9 -30 -3 -80 -8 -110 -11 -65 -6 -141 -14 -190 -20 -19 -2 -64 -7
-100 -10 -36 -3 -85 -8 -110 -10 -60 -6 -170 -17 -195 -21 -11 -1 -23 -3 -27
-3 -16 -2 -7 -31 10 -32 51 -2 221 -8 407 -13 116 -4 282 -8 370 -11 88 -2
248 -7 355 -10 107 -2 281 -8 385 -11 105 -4 231 -8 280 -9 50 -2 95 -3 102
-4 19 -2 8 -36 -13 -38 -10 -1 -41 -4 -69 -7 -73 -9 -134 -16 -185 -22 -25 -2
-63 -7 -85 -9 -22 -3 -62 -8 -90 -10 -27 -3 -66 -7 -85 -10 -19 -3 -57 -7 -85
-10 -27 -3 -63 -8 -80 -10 -60 -7 -131 -15 -180 -20 -27 -3 -68 -8 -90 -10
-33 -4 -443 -51 -615 -70 -25 -3 -61 -7 -80 -10 -34 -4 -56 -7 -185 -21 -69
-7 -75 -10 -75 -30 0 -12 28 -14 163 -15 89 0 259 -2 377 -4 118 -2 413 -7
655 -11 451 -6 701 -11 722 -13 23 -2 1 -37 -25 -39 -30 -2 -252 -31 -292 -37
-14 -2 -47 -7 -75 -10 -54 -6 -100 -12 -155 -19 -19 -3 -57 -7 -85 -11 -27 -3
-95 -12 -150 -20 -103 -14 -158 -21 -235 -30 -25 -3 -61 -7 -80 -10 -19 -2
-55 -7 -80 -10 -25 -3 -56 -8 -70 -10 -14 -2 -50 -7 -80 -10 -69 -7 -99 -11
-230 -29 -58 -8 -131 -18 -163 -21 -32 -4 -66 -8 -75 -10 -9 -1 -41 -6 -69
-10 -40 -5 -53 -11 -53 -23 0 -16 249 -17 3500 -17 3327 0 3500 1 3500 17 0
10 -6 18 -12 19 -7 0 -20 2 -28 3 -8 2 -40 6 -70 10 -96 11 -134 16 -170 22
-19 2 -107 14 -195 25 -88 11 -171 21 -185 24 -14 2 -50 7 -80 10 -30 3 -66 8
-80 10 -14 2 -50 7 -80 10 -30 3 -66 8 -80 10 -22 3 -69 10 -230 30 -82 11
-117 15 -150 20 -19 3 -57 7 -85 11 -27 3 -59 7 -70 9 -11 1 -47 6 -80 10 -33
3 -70 8 -82 10 -34 5 -216 28 -230 28 -17 0 -24 25 -10 34 6 4 68 8 137 9 117
1 819 12 1315 19 121 2 275 4 343 4 115 1 122 2 122 21 0 16 -7 20 -32 21 -18
1 -37 2 -43 3 -5 1 -46 6 -90 10 -44 5 -89 10 -100 12 -11 2 -47 6 -80 9 -33
3 -91 10 -130 15 -80 10 -133 17 -223 25 -35 4 -71 8 -80 10 -15 2 -45 6 -179
20 -24 3 -62 7 -84 10 -23 2 -62 7 -88 10 -25 3 -62 7 -81 10 -19 2 -60 7 -90
10 -30 3 -71 8 -90 10 -19 2 -60 7 -90 10 -30 3 -71 8 -90 10 -19 3 -56 7 -82
10 -281 29 -275 28 -275 50 0 8 3 15 6 16 8 1 150 6 406 13 116 4 284 9 375
12 91 3 235 7 320 9 350 9 792 22 813 24 12 2 8 31 -5 32 -7 0 -22 2 -33 4
-11 3 -56 7 -99 11 -44 3 -87 7 -97 9 -10 2 -49 6 -86 10 -37 3 -86 8 -108 10
-22 2 -65 7 -95 10 -30 3 -77 7 -105 10 -27 3 -90 9 -140 15 -49 5 -119 12
-155 15 -67 6 -113 11 -190 19 -25 3 -97 10 -160 16 -63 6 -133 13 -155 15
-82 9 -243 25 -410 41 -66 6 -94 19 -77 36 5 5 53 10 108 13 54 3 142 7 194
10 52 2 160 7 240 10 80 4 181 8 225 10 44 2 152 7 240 10 88 3 198 8 245 10
47 3 157 8 245 11 88 4 185 8 215 9 30 2 88 4 128 4 56 1 74 5 79 16 3 9 4 17
2 19 -4 4 -71 11 -199 21 -41 4 -91 8 -110 10 -19 2 -73 7 -120 10 -47 3 -96
8 -110 10 -14 2 -68 6 -120 10 -52 3 -102 8 -110 10 -8 2 -58 7 -110 10 -52 4
-108 8 -125 9 -16 2 -68 6 -115 10 -47 4 -101 9 -120 11 -19 2 -71 7 -115 10
-126 10 -186 15 -247 20 -32 3 -84 7 -115 10 -134 10 -198 17 -202 21 -17 17
-6 34 22 35 18 1 46 2 62 4 17 2 93 6 170 10 77 3 156 8 175 10 19 2 96 6 170
10 74 4 153 8 175 10 22 1 99 5 170 9 72 4 155 9 185 11 30 2 107 7 170 10 63
3 140 8 170 10 30 2 118 7 195 11 77 4 154 8 170 10 17 1 42 2 58 3 19 1 27 6
27 19 0 10 -8 18 -17 18 -10 1 -63 4 -118 8 -55 4 -129 9 -165 11 -36 3 -92 7
-125 10 -33 2 -98 7 -145 10 -47 3 -112 8 -145 10 -33 3 -96 8 -140 10 -44 3
-102 7 -130 10 -27 2 -90 6 -140 10 -49 3 -117 8 -150 10 -33 3 -96 8 -140 10
-44 3 -105 8 -135 10 -30 2 -93 7 -140 10 -148 9 -225 16 -229 21 -16 16 -6
34 17 35 15 1 41 2 57 4 17 1 75 5 130 9 55 4 120 9 145 11 25 2 86 6 135 10
50 3 117 7 150 10 33 2 96 7 140 10 79 5 170 12 275 20 30 2 96 7 145 10 50 3
115 8 145 10 30 3 96 7 145 11 50 3 105 7 124 9 19 3 89 7 155 10 67 3 129 8
139 11 28 8 20 34 -10 35 -16 0 -39 2 -53 4 -14 1 -90 6 -168 10 -79 4 -163 8
-185 10 -23 2 -98 7 -167 10 -69 4 -150 8 -180 10 -30 2 -107 6 -170 10 -63 3
-146 8 -185 10 -38 2 -115 7 -170 10 -55 3 -136 7 -180 10 -44 3 -123 7 -175
10 -281 16 -262 13 -266 40 -2 10 8 15 29 16 18 0 39 2 47 3 8 2 60 7 115 10
55 4 111 9 125 11 14 1 66 6 115 9 50 4 106 9 125 11 19 2 67 7 105 10 202 16
289 23 345 30 19 2 76 7 125 10 50 3 101 8 115 10 14 2 66 6 115 10 50 3 106
8 125 10 19 2 71 7 115 10 44 4 94 8 110 10 17 1 72 6 123 10 65 5 92 11 92
21 0 7 -3 15 -7 17 -5 3 -82 8 -173 12 -91 3 -199 8 -240 10 -41 2 -142 7
-225 10 -82 3 -190 8 -240 10 -49 2 -153 7 -230 10 -77 3 -176 7 -220 10 -44
2 -159 7 -255 11 -314 11 -322 12 -331 26 -15 24 -14 25 186 44 111 10 162 15
195 20 20 2 60 6 90 9 30 3 82 7 115 11 33 3 78 7 100 9 22 3 67 7 100 10 33
4 76 8 95 10 19 2 62 6 95 10 33 3 78 8 100 10 139 13 173 17 195 20 14 2 63
7 110 10 47 4 92 8 100 10 8 1 50 6 92 10 43 3 90 8 105 10 16 2 62 6 103 10
41 4 84 9 95 10 11 1 26 3 33 4 13 1 17 30 5 32 -16 2 -163 7 -373 13 -213 6
-405 12 -715 21 -231 7 -583 16 -706 19 -58 1 -110 6 -117 10 -16 9 -4 35 16
34 9 0 31 2 47 5 17 3 59 9 95 12 36 3 76 8 90 10 14 2 54 7 90 10 36 3 72 8
80 10 8 2 51 6 95 10 44 3 89 8 100 10 11 2 45 7 75 10 30 3 69 7 85 9 17 2
59 7 95 11 36 3 72 8 80 10 8 2 47 6 85 10 39 3 81 8 95 10 14 2 50 6 80 10
30 3 69 7 85 9 28 4 129 15 185 21 85 9 148 17 170 20 14 2 54 7 90 11 170 18
175 19 178 37 3 15 -8 17 -120 18 -68 0 -199 2 -293 4 -152 3 -1052 16 -1373
19 -104 1 -125 4 -133 18 -11 20 1 25 76 33 55 5 101 11 155 19 32 5 70 10
160 21 43 5 116 15 150 20 28 4 107 14 160 20 19 2 58 7 85 11 28 4 61 8 75 9
14 2 43 5 65 8 22 4 78 11 125 17 114 14 160 20 190 25 14 2 50 7 80 10 127
15 140 17 235 30 22 2 58 7 80 10 22 3 91 12 154 20 63 8 119 15 124 15 4 0 7
8 5 17 -3 17 -178 18 -3501 18 -3324 0 -3497 -1 -3497 -17z m4550 -1558 l0
-1050 -1050 0 -1050 0 0 1050 0 1050 1050 0 1050 0 0 -1050z"/>
</g>
</svg>
