<?xml version="1.0" standalone="no"?>
<!DOCTYPE svg PUBLIC "-//W3C//DTD SVG 20010904//EN"
 "http://www.w3.org/TR/2001/REC-SVG-20010904/DTD/svg10.dtd">
<svg version="1.0" xmlns="http://www.w3.org/2000/svg"
 width="400.000000pt" height="400.000000pt" viewBox="0 0 400.000000 400.000000"
 preserveAspectRatio="xMidYMid meet">
<metadata>
Created by potrace 1.11, written by Peter Selinger 2001-2013
</metadata>
<g transform="translate(0.000000,400.000000) scale(0.100000,-0.100000)"
fill="#000000" stroke="none">
<path d="M0 2877 c0 -7 8 -13 18 -13 15 -1 74 -8 162 -19 14 -2 52 -6 85 -10
33 -3 67 -8 75 -10 8 -2 44 -7 80 -10 36 -4 73 -9 84 -11 10 -2 44 -6 75 -9
31 -4 67 -8 81 -11 14 -2 50 -6 80 -9 30 -3 68 -9 85 -12 16 -3 47 -7 70 -9
60 -4 188 -24 194 -29 2 -3 2 -7 -1 -10 -5 -5 -259 -11 -853 -19 -153 -2 -230
-7 -233 -14 -3 -11 22 -17 123 -27 33 -4 78 -9 100 -11 22 -3 58 -7 80 -9 53
-5 144 -15 175 -20 14 -2 59 -7 100 -10 41 -4 82 -9 91 -10 8 -2 49 -6 90 -10
41 -4 88 -8 104 -11 71 -9 181 -22 208 -23 10 -1 17 -7 15 -13 -3 -9 -37 -13
-109 -15 -100 -2 -182 -4 -624 -19 -110 -3 -232 -7 -272 -8 -65 -1 -94 -9 -82
-20 2 -3 31 -7 64 -10 33 -4 78 -8 100 -11 22 -2 72 -7 110 -11 39 -3 84 -8
100 -9 111 -11 176 -17 215 -20 25 -2 74 -6 109 -10 35 -4 80 -8 100 -10 119
-11 187 -18 201 -20 8 -2 32 -4 53 -4 52 -1 44 -25 -9 -27 -21 -1 -97 -5 -169
-8 -71 -4 -179 -9 -240 -11 -60 -3 -148 -7 -195 -10 -111 -5 -378 -18 -409
-19 -39 -2 -38 -26 1 -27 18 -1 44 -3 58 -4 14 -1 66 -5 115 -9 145 -11 217
-17 260 -21 22 -2 81 -6 130 -10 50 -3 111 -8 135 -10 232 -20 278 -23 323
-24 25 -1 37 -5 35 -13 -5 -14 -14 -15 -137 -23 -134 -8 -246 -15 -316 -20
-33 -2 -107 -6 -165 -10 -58 -3 -130 -8 -160 -10 -49 -4 -266 -17 -297 -18 -7
0 -13 -6 -13 -14 0 -9 16 -13 53 -14 72 -2 139 -6 227 -13 41 -4 118 -9 170
-11 121 -7 261 -15 325 -20 28 -2 106 -7 175 -10 69 -4 128 -9 133 -12 14 -8
-4 -23 -26 -21 -21 1 -187 -9 -292 -18 -27 -2 -97 -6 -155 -9 -58 -3 -130 -8
-160 -10 -102 -8 -274 -18 -337 -19 -35 -1 -63 -4 -63 -7 0 -3 -11 -4 -25 -1
-23 4 -35 -11 -17 -21 6 -4 130 -13 304 -22 31 -2 96 -6 145 -9 48 -3 131 -8
183 -11 52 -3 120 -8 150 -10 30 -3 107 -7 170 -11 63 -3 118 -8 122 -11 14
-8 8 -22 -9 -21 -10 0 -49 -2 -88 -6 -38 -4 -97 -8 -130 -11 -33 -2 -89 -7
-125 -10 -37 -3 -95 -7 -130 -10 -85 -5 -192 -14 -255 -20 -27 -2 -90 -7 -140
-11 -49 -4 -103 -8 -120 -10 -16 -1 -43 -3 -58 -3 -38 -1 -30 -26 9 -27 41 -2
305 -14 389 -19 39 -2 129 -6 200 -9 113 -5 195 -9 407 -20 46 -2 67 -10 56
-21 -2 -3 -40 -8 -84 -11 -43 -3 -92 -7 -109 -9 -16 -2 -61 -6 -100 -10 -38
-4 -86 -8 -105 -10 -112 -11 -217 -21 -320 -30 -36 -3 -81 -7 -100 -10 -19 -2
-69 -7 -110 -11 -66 -6 -88 -8 -148 -13 -8 0 -12 -6 -10 -13 3 -8 31 -13 79
-14 41 -1 162 -5 269 -8 107 -4 274 -9 370 -11 356 -11 385 -13 368 -30 -3 -3
-27 -8 -54 -10 -73 -8 -145 -16 -179 -20 -16 -2 -52 -7 -80 -9 -27 -3 -70 -8
-95 -11 -53 -6 -122 -13 -187 -20 -27 -2 -66 -7 -88 -10 -22 -2 -67 -7 -100
-10 -33 -3 -71 -8 -85 -10 -14 -3 -52 -7 -85 -10 -113 -12 -127 -14 -133 -19
-15 -15 27 -19 275 -22 752 -11 807 -12 811 -23 2 -6 0 -11 -5 -11 -4 0 -39
-5 -78 -11 -38 -5 -88 -12 -110 -14 -22 -3 -56 -7 -75 -10 -32 -4 -58 -7 -162
-20 -21 -3 -55 -7 -75 -10 -64 -8 -126 -15 -173 -21 -25 -2 -56 -7 -70 -9 -14
-3 -51 -7 -83 -10 -32 -4 -66 -8 -75 -10 -24 -4 -143 -18 -164 -19 -10 0 -18
-6 -18 -13 0 -11 377 -13 2001 -13 1516 0 2000 3 1997 12 -4 12 -12 14 -98 23
-30 3 -66 8 -80 10 -14 2 -47 6 -75 10 -27 3 -61 8 -75 10 -14 2 -50 6 -80 10
-30 3 -66 7 -80 9 -14 3 -52 8 -85 11 -101 12 -169 20 -245 30 -48 6 -77 10
-155 20 -97 12 -116 16 -113 27 3 7 104 12 298 14 780 10 806 11 788 29 -7 7
-33 11 -123 20 -38 4 -84 9 -102 11 -45 5 -118 13 -183 19 -30 3 -71 8 -90 10
-19 2 -56 7 -81 10 -25 4 -66 8 -90 10 -47 4 -116 11 -189 20 -25 3 -64 8 -87
10 -106 12 -138 16 -142 21 -12 11 16 17 106 20 378 13 850 27 925 28 39 1 58
5 58 14 0 6 -6 13 -12 13 -7 1 -26 3 -43 4 -16 2 -61 6 -100 9 -38 3 -86 8
-105 10 -19 3 -71 8 -115 11 -44 4 -91 8 -105 10 -14 1 -56 5 -95 9 -38 4 -88
9 -110 11 -22 2 -69 7 -105 10 -57 5 -111 10 -215 20 -16 1 -43 3 -58 4 -41 1
-29 25 14 27 35 2 210 10 404 20 110 5 134 6 445 19 194 9 193 8 198 23 2 7
-8 12 -25 13 -55 2 -250 17 -313 24 -19 3 -73 7 -120 10 -47 3 -105 7 -130 9
-25 2 -85 7 -135 10 -49 4 -101 9 -115 11 -14 2 -72 7 -129 10 -57 3 -108 8
-112 11 -15 9 -10 23 9 22 17 -1 177 9 282 17 30 2 105 6 165 10 61 4 130 8
155 10 25 2 97 7 160 10 63 4 131 8 150 10 19 2 63 5 98 6 56 2 75 10 55 22
-8 5 -84 11 -283 22 -47 3 -114 7 -150 10 -36 3 -112 7 -170 10 -58 3 -127 7
-155 9 -27 3 -102 7 -165 11 -63 3 -124 8 -135 10 -11 2 -22 4 -24 4 -3 1 -1
5 5 10 5 5 68 12 139 15 72 4 155 9 185 11 137 10 222 16 310 21 52 3 118 7
145 9 28 1 104 6 170 10 111 6 150 15 128 28 -5 3 -65 9 -133 12 -69 4 -152 8
-185 11 -55 4 -93 6 -290 19 -38 2 -106 6 -150 9 -192 13 -291 18 -307 18 -18
-1 -24 13 -10 21 4 3 50 8 102 12 52 3 111 8 130 10 19 2 73 6 120 10 47 3
105 8 130 10 25 2 81 7 125 10 44 3 100 8 125 10 25 2 88 7 140 11 52 4 111 8
130 10 19 1 46 3 58 3 34 1 22 25 -14 27 -16 1 -96 5 -179 9 -266 12 -318 14
-415 19 -52 3 -158 8 -235 12 -207 9 -214 10 -222 17 -11 12 -1 15 67 21 36 4
90 9 120 12 30 3 78 7 105 9 28 3 73 7 100 10 28 2 77 7 110 10 61 5 123 11
205 20 25 3 70 7 100 10 63 5 183 16 220 20 14 2 33 3 43 4 9 1 17 7 17 14 0
9 -27 12 -97 13 -54 1 -172 5 -263 8 -91 3 -248 8 -350 11 -328 11 -371 13
-377 19 -11 10 2 15 53 21 27 3 72 8 99 12 28 3 66 7 85 8 36 3 126 13 170 20
14 2 57 6 95 10 39 3 90 9 115 12 50 6 66 7 160 17 36 4 81 9 100 11 19 2 60
7 90 10 109 12 130 18 117 31 -4 4 -116 8 -249 10 -600 8 -830 13 -836 18 -9
10 2 15 44 21 21 3 50 8 64 10 14 3 50 7 80 10 30 3 73 8 95 12 22 3 51 7 65
8 14 2 45 6 70 9 119 15 196 24 255 31 28 3 83 10 124 16 40 6 87 12 105 14
182 20 179 19 184 33 3 9 -481 12 -1997 12 -1624 0 -2001 -2 -2001 -13z m2570
-277 l36 0 0 -605 0 -605 -606 0 -605 0 0 602 0 602 23 6 c17 4 828 4 1152 0z"/>
</g>
</svg>
